<svg xmlns="http://www.w3.org/2000/svg" xmlns:xlink="http://www.w3.org/1999/xlink" width="755" zoomAndPan="magnify" viewBox="0 0 566.25 215.249992" height="287" preserveAspectRatio="xMidYMid meet" version="1.0"><defs><clipPath id="698f321120"><path d="M 0.609375 0 L 564.894531 0 L 564.894531 214.171875 L 0.609375 214.171875 Z M 0.609375 0 " clip-rule="nonzero"/></clipPath><clipPath id="4ca5b351c0"><path d="M 10.324219 0 L 555.175781 0 C 560.542969 0 564.894531 4.351562 564.894531 9.714844 L 564.894531 204.457031 C 564.894531 209.820312 560.542969 214.171875 555.175781 214.171875 L 10.324219 214.171875 C 4.960938 214.171875 0.609375 209.820312 0.609375 204.457031 L 0.609375 9.714844 C 0.609375 4.351562 4.960938 0 10.324219 0 Z M 10.324219 0 " clip-rule="nonzero"/></clipPath><clipPath id="2720a743a0"><path d="M 0.609375 0 L 564.894531 0 L 564.894531 214.171875 L 0.609375 214.171875 Z M 0.609375 0 " clip-rule="nonzero"/></clipPath><clipPath id="36347a5ce9"><path d="M 10.324219 0 L 555.175781 0 C 560.542969 0 564.894531 4.351562 564.894531 9.714844 L 564.894531 204.457031 C 564.894531 209.820312 560.542969 214.171875 555.175781 214.171875 L 10.324219 214.171875 C 4.960938 214.171875 0.609375 209.820312 0.609375 204.457031 L 0.609375 9.714844 C 0.609375 4.351562 4.960938 0 10.324219 0 Z M 10.324219 0 " clip-rule="nonzero"/></clipPath><clipPath id="3cae08f9aa"><rect x="0" width="565" y="0" height="215"/></clipPath><clipPath id="b5193f9dde"><path d="M 11.335938 11.039062 L 194 11.039062 L 194 203.121094 L 11.335938 203.121094 Z M 11.335938 11.039062 " clip-rule="nonzero"/></clipPath><clipPath id="541c488541"><path d="M 455 67 L 553.945312 67 L 553.945312 193 L 455 193 Z M 455 67 " clip-rule="nonzero"/></clipPath></defs><g clip-path="url(#698f321120)"><g clip-path="url(#4ca5b351c0)"><g><g clip-path="url(#3cae08f9aa)"><g clip-path="url(#2720a743a0)"><g clip-path="url(#36347a5ce9)"><path fill="#f8f9fa" d="M 0.609375 0 L 564.480469 0 L 564.480469 214.171875 L 0.609375 214.171875 Z M 0.609375 0 " fill-opacity="1" fill-rule="nonzero"/></g></g></g></g></g></g><g clip-path="url(#b5193f9dde)"><path fill="#24242a" d="M 58.570312 11.015625 C 67.449219 10.957031 76.328125 10.921875 85.210938 10.902344 C 87.246094 10.898438 89.28125 10.890625 91.316406 10.882812 C 94.574219 10.871094 97.828125 10.867188 101.085938 10.867188 C 102.285156 10.867188 103.484375 10.863281 104.683594 10.859375 C 126.855469 10.757812 147.429688 14.699219 163.828125 30.703125 C 174.191406 41.171875 177.628906 52.367188 177.707031 66.832031 C 177.71875 67.929688 177.734375 69.023438 177.753906 70.117188 C 178.109375 87.601562 172.070312 100.601562 159.945312 113.246094 C 149.375 123.492188 132.785156 131.523438 117.789062 131.402344 C 116.6875 131.394531 116.6875 131.394531 115.5625 131.386719 C 115.003906 131.382812 114.449219 131.375 113.875 131.371094 C 114.070312 136.167969 114.269531 140.964844 114.472656 145.761719 C 114.539062 147.390625 114.605469 149.015625 114.675781 150.644531 C 115.046875 159.671875 115.441406 168.695312 116.117188 177.707031 C 116.828125 177.941406 117.535156 178.175781 118.265625 178.414062 C 119.574219 178.855469 120.878906 179.3125 122.152344 179.839844 C 127.324219 181.902344 132.339844 181.75 137.824219 181.445312 C 138.480469 181.410156 139.140625 181.375 139.820312 181.335938 C 157.144531 180.378906 157.144531 180.378906 172.25 172.476562 C 176.753906 167.15625 179.414062 160.410156 182.277344 154.113281 C 183.476562 151.550781 183.476562 151.550781 184.222656 150.800781 C 185.59375 150.726562 186.96875 150.703125 188.339844 150.707031 C 189.089844 150.707031 189.835938 150.703125 190.609375 150.703125 C 192.457031 150.800781 192.457031 150.800781 193.203125 151.550781 C 192.875 157.15625 191.464844 162.265625 189.867188 167.628906 C 189.609375 168.507812 189.355469 169.382812 189.089844 170.289062 C 188.542969 172.132812 187.996094 173.976562 187.449219 175.820312 C 186.609375 178.640625 185.785156 181.464844 184.964844 184.289062 C 184.433594 186.085938 183.902344 187.882812 183.367188 189.679688 C 183 190.941406 183 190.941406 182.628906 192.230469 C 182.390625 193.015625 182.152344 193.804688 181.910156 194.613281 C 181.703125 195.300781 181.5 195.988281 181.292969 196.699219 C 180.234375 199.226562 179.625 200.578125 177.488281 202.371094 C 174.519531 202.945312 171.574219 202.886719 168.5625 202.863281 C 167.640625 202.871094 166.722656 202.878906 165.777344 202.886719 C 163.242188 202.90625 160.707031 202.90625 158.167969 202.902344 C 155.472656 202.898438 152.773438 202.917969 150.074219 202.933594 C 144.871094 202.964844 139.667969 202.972656 134.464844 202.972656 C 128.496094 202.976562 122.53125 203 116.566406 203.027344 C 105.410156 203.070312 94.25 203.09375 83.089844 203.105469 C 75.433594 203.117188 67.777344 203.132812 60.121094 203.160156 C 52.949219 203.183594 45.777344 203.199219 38.605469 203.210938 C 37.328125 203.210938 36.046875 203.214844 34.769531 203.214844 C 31.214844 203.222656 27.65625 203.226562 24.097656 203.21875 C 23.058594 203.21875 22.019531 203.21875 20.976562 203.222656 C 19.597656 203.222656 18.21875 203.21875 16.835938 203.214844 C 15.695312 203.214844 15.695312 203.214844 14.53125 203.214844 C 12.839844 203.121094 12.839844 203.121094 12.089844 202.371094 C 11.996094 201.019531 11.957031 199.664062 11.949219 198.308594 C 11.9375 197.570312 11.929688 196.832031 11.917969 196.070312 C 12.089844 194.152344 12.089844 194.152344 13.585938 192.65625 C 14.933594 192.246094 14.933594 192.246094 16.546875 191.933594 C 17.425781 191.753906 17.425781 191.753906 18.324219 191.570312 C 19.554688 191.332031 20.785156 191.089844 22.011719 190.851562 C 25.386719 190.160156 27.898438 189.363281 30.800781 187.425781 C 31.292969 187.425781 31.789062 187.425781 32.296875 187.425781 C 35.855469 177.730469 34.773438 165.980469 34.964844 155.753906 C 34.980469 154.941406 34.996094 154.128906 35.011719 153.292969 C 35.558594 123.925781 35.527344 94.542969 34.964844 65.179688 C 34.949219 64.394531 34.933594 63.613281 34.917969 62.808594 C 35.316406 46.621094 35.316406 46.621094 31.546875 31.21875 C 31.347656 30.507812 31.148438 29.800781 30.941406 29.070312 C 30.160156 27.300781 30.160156 27.300781 28.132812 26.640625 C 26.859375 26.316406 26.859375 26.316406 25.5625 25.988281 C 24.484375 25.636719 23.40625 25.277344 22.332031 24.914062 C 20.535156 24.308594 18.734375 23.714844 16.921875 23.15625 C 16.316406 22.964844 15.707031 22.773438 15.082031 22.578125 C 14.527344 22.40625 13.972656 22.234375 13.398438 22.058594 C 12.089844 21.503906 12.089844 21.503906 11.339844 20.007812 C 11.074219 14.425781 11.074219 14.425781 12.839844 11.785156 C 14.195312 11.488281 14.195312 11.488281 15.882812 11.464844 C 16.847656 11.441406 16.847656 11.441406 17.832031 11.417969 C 18.546875 11.414062 19.257812 11.410156 19.996094 11.402344 C 20.757812 11.390625 21.519531 11.375 22.304688 11.363281 C 24.886719 11.320312 27.46875 11.296875 30.050781 11.273438 C 31.882812 11.25 33.714844 11.222656 35.546875 11.199219 C 41.34375 11.128906 47.144531 11.085938 52.941406 11.050781 C 54.816406 11.039062 56.691406 11.027344 58.570312 11.015625 Z M 66.722656 24.492188 C 65.980469 34.40625 65.734375 44.308594 65.554688 54.246094 C 65.539062 55.085938 65.523438 55.921875 65.507812 56.785156 C 65.113281 77.910156 65.160156 99.03125 65.226562 120.160156 C 73.625 120.160156 82.019531 120.160156 90.671875 120.160156 C 90.742188 108.640625 90.632812 97.148438 90.34375 85.636719 C 90.332031 85.023438 90.316406 84.410156 90.300781 83.773438 C 90.214844 80.257812 90.105469 76.746094 89.976562 73.234375 C 89.925781 71.59375 89.90625 69.953125 89.890625 68.3125 C 89.863281 67.300781 89.832031 66.289062 89.804688 65.28125 C 89.789062 64.402344 89.777344 63.523438 89.761719 62.617188 C 89.363281 60.171875 89.363281 60.171875 87.050781 58.648438 C 84.785156 57.429688 82.515625 56.238281 80.195312 55.136719 C 80.195312 52.914062 80.195312 50.695312 80.195312 48.410156 C 95.261719 48.410156 110.324219 48.410156 125.847656 48.410156 C 125.847656 50.628906 125.847656 52.847656 125.847656 55.136719 C 125.21875 55.394531 124.585938 55.65625 123.9375 55.925781 C 122.707031 56.4375 122.707031 56.4375 121.449219 56.957031 C 120.226562 57.464844 120.226562 57.464844 118.976562 57.980469 C 117.761719 58.496094 116.550781 59.03125 115.371094 59.621094 C 115.027344 61.769531 115.027344 61.769531 114.929688 64.410156 C 114.902344 64.910156 114.875 65.40625 114.84375 65.921875 C 114.519531 72.144531 114.355469 78.378906 114.199219 84.609375 C 114.183594 85.226562 114.167969 85.839844 114.152344 86.476562 C 113.890625 96.707031 113.78125 106.933594 113.875 117.167969 C 127.089844 112.425781 136.253906 107.464844 142.542969 94.644531 C 144.414062 90.5625 145.332031 86.457031 146.054688 82.042969 C 146.242188 81.210938 146.425781 80.378906 146.617188 79.523438 C 149.140625 66.390625 145.214844 52.253906 138.191406 41.070312 C 133.101562 33.632812 124.277344 29.019531 115.59375 27.300781 C 113.613281 26.929688 111.628906 26.582031 109.640625 26.273438 C 108.390625 26.070312 107.148438 25.839844 105.90625 25.59375 C 97.90625 24.125 89.933594 24.324219 81.832031 24.398438 C 80.363281 24.40625 78.890625 24.414062 77.421875 24.417969 C 73.855469 24.433594 70.289062 24.460938 66.722656 24.492188 Z M 65.226562 132.117188 C 65.125 143.402344 65.425781 154.664062 65.828125 165.941406 C 65.929688 168.800781 66.007812 171.65625 66.058594 174.515625 C 66.09375 175.644531 66.128906 176.769531 66.164062 177.894531 C 66.179688 178.808594 66.199219 179.722656 66.222656 180.664062 C 66.890625 183.703125 68.015625 184.792969 70.464844 186.675781 C 72.773438 187.589844 72.773438 187.589844 75.191406 188.03125 C 75.988281 188.207031 76.789062 188.378906 77.613281 188.558594 C 78.519531 188.738281 78.519531 188.738281 79.445312 188.917969 C 79.414062 188.132812 79.386719 187.347656 79.351562 186.535156 C 80.195312 183.6875 80.195312 183.6875 81.859375 182.613281 C 83.195312 181.996094 84.550781 181.417969 85.921875 180.875 C 88.050781 179.753906 88.324219 179.175781 89.175781 176.960938 C 89.507812 174.703125 89.507812 174.703125 89.617188 172.210938 C 89.671875 171.28125 89.726562 170.347656 89.785156 169.390625 C 90.003906 164.859375 90.195312 160.332031 90.34375 155.800781 C 90.378906 154.917969 90.410156 154.039062 90.441406 153.132812 C 90.683594 146.117188 90.671875 139.148438 90.671875 132.117188 C 82.277344 132.117188 73.878906 132.117188 65.226562 132.117188 Z M 65.226562 132.117188 " fill-opacity="1" fill-rule="nonzero"/></g><path fill="#24242a" d="M 249.289062 63.777344 C 250.105469 63.761719 250.917969 63.746094 251.761719 63.730469 C 260.71875 63.738281 267.546875 65.851562 273.984375 72.148438 C 278.242188 76.757812 280.148438 81.253906 280.328125 87.589844 C 280.371094 89 280.371094 89 280.417969 90.433594 C 280.441406 91.453125 280.46875 92.46875 280.492188 93.484375 C 280.523438 94.542969 280.554688 95.601562 280.585938 96.660156 C 280.652344 98.875 280.714844 101.089844 280.773438 103.308594 C 280.84375 106.117188 280.925781 108.929688 281.007812 111.738281 C 281.089844 114.453125 281.164062 117.164062 281.242188 119.878906 C 281.257812 120.382812 281.269531 120.882812 281.285156 121.402344 C 281.476562 128.214844 281.550781 135.019531 281.515625 141.832031 C 284.394531 141.847656 287.144531 141.855469 289.984375 141.367188 C 290.894531 141.273438 291.804688 141.179688 292.742188 141.085938 C 294.238281 142.582031 294.238281 142.582031 294.5 144.351562 C 294.167969 146.855469 293.378906 147.65625 291.574219 149.398438 C 291.078125 149.894531 290.582031 150.390625 290.074219 150.902344 C 284.359375 155.28125 277.949219 155.382812 271.058594 154.789062 C 268.171875 154.3125 266.441406 153.097656 264.515625 150.96875 C 262.847656 148.078125 262.324219 145.128906 262.058594 141.832031 C 261.460938 142.382812 260.863281 142.933594 260.246094 143.5 C 251.820312 151.074219 245.324219 154.078125 233.804688 154.210938 C 233 154.222656 232.191406 154.234375 231.359375 154.246094 C 225.539062 154.167969 221.570312 153.109375 217 149.496094 C 211.0625 143.25 210.039062 138.308594 210.222656 129.859375 C 210.671875 123.039062 213.769531 119.0625 218.695312 114.445312 C 226.589844 108.132812 235.949219 105.925781 245.59375 103.714844 C 246.535156 103.496094 246.535156 103.496094 247.496094 103.269531 C 249.339844 102.835938 251.183594 102.410156 253.03125 101.988281 C 253.59375 101.859375 254.15625 101.730469 254.734375 101.597656 C 257.261719 101.042969 259.457031 100.726562 262.058594 100.726562 C 261.746094 97.828125 261.410156 94.933594 261.074219 92.039062 C 260.941406 90.8125 260.941406 90.8125 260.808594 89.558594 C 260.308594 85.347656 259.769531 82.011719 257.566406 78.304688 C 257.566406 77.8125 257.566406 77.316406 257.566406 76.808594 C 251.328125 74.890625 244.007812 73.929688 237.867188 76.699219 C 233.167969 79.914062 232.027344 85.855469 230.691406 91.046875 C 229.78125 93.507812 228.972656 94.660156 226.882812 96.242188 C 223.699219 97.109375 220.699219 96.898438 217.746094 95.40625 C 215.273438 93.382812 214.292969 91.804688 213.761719 88.628906 C 213.609375 83.039062 214.347656 79.972656 218 75.6875 C 226.890625 66.566406 236.707031 63.695312 249.289062 63.777344 Z M 235.117188 117.917969 C 231.300781 121.964844 230.316406 126.5 230.484375 131.972656 C 230.859375 136.421875 230.859375 136.421875 232.871094 140.339844 C 237.242188 142.726562 241.679688 142.894531 246.480469 141.878906 C 252.132812 140.15625 257.410156 137.238281 260.5625 132.117188 C 261.136719 129.453125 261.324219 126.796875 261.496094 124.082031 C 261.554688 123.371094 261.613281 122.660156 261.671875 121.929688 C 262.003906 117.589844 262.113281 113.296875 262.058594 108.949219 C 253.265625 108.949219 242.292969 112.964844 235.117188 117.917969 Z M 235.117188 117.917969 " fill-opacity="1" fill-rule="nonzero"/><g clip-path="url(#541c488541)"><path fill="#24242a" d="M 455.894531 67.09375 C 469.726562 67.09375 483.558594 67.09375 497.804688 67.09375 C 497.804688 69.066406 497.804688 71.039062 497.804688 73.074219 C 493.730469 74.183594 493.730469 74.183594 489.574219 75.316406 C 489.933594 79.949219 490.699219 83.640625 492.578125 87.875 C 492.808594 88.414062 493.039062 88.949219 493.277344 89.503906 C 494.03125 91.257812 494.796875 93 495.5625 94.746094 C 496.089844 95.96875 496.617188 97.195312 497.148438 98.417969 C 498.789062 102.214844 500.449219 106 502.109375 109.789062 C 502.960938 111.726562 503.808594 113.667969 504.65625 115.609375 C 505.179688 116.800781 505.703125 117.992188 506.222656 119.183594 C 507.675781 122.492188 509.109375 125.804688 510.527344 129.128906 C 514.246094 120.246094 517.898438 111.339844 521.515625 102.417969 C 522.128906 100.898438 522.746094 99.378906 523.367188 97.863281 C 527.871094 86.945312 527.871094 86.945312 529.238281 75.316406 C 528.714844 75.214844 528.195312 75.117188 527.65625 75.015625 C 526.972656 74.882812 526.292969 74.75 525.589844 74.613281 C 524.914062 74.484375 524.238281 74.355469 523.539062 74.21875 C 521.753906 73.820312 521.753906 73.820312 520.257812 73.074219 C 520.257812 71.097656 520.257812 69.125 520.257812 67.09375 C 531.371094 67.09375 542.484375 67.09375 553.9375 67.09375 C 553.9375 69.066406 553.9375 71.039062 553.9375 73.074219 C 552.597656 73.699219 551.257812 74.320312 549.914062 74.941406 C 549.167969 75.289062 548.421875 75.632812 547.652344 75.992188 C 545.703125 76.808594 545.703125 76.808594 544.207031 76.808594 C 544 77.339844 543.789062 77.867188 543.574219 78.414062 C 542.710938 80.546875 541.804688 82.65625 540.882812 84.765625 C 540.515625 85.609375 540.148438 86.453125 539.769531 87.324219 C 539.570312 87.777344 539.371094 88.230469 539.167969 88.699219 C 535.285156 97.609375 531.449219 106.542969 527.648438 115.492188 C 526.847656 117.367188 526.050781 119.246094 525.25 121.121094 C 522.988281 126.441406 520.726562 131.757812 518.472656 137.082031 C 516.976562 140.617188 515.476562 144.152344 513.972656 147.683594 C 513.402344 149.023438 512.835938 150.363281 512.269531 151.703125 C 498.605469 184.089844 498.605469 184.089844 485.621094 191.371094 C 480.28125 192.78125 473.179688 193.269531 468.070312 191 C 465.386719 188.648438 464.558594 186.371094 464.316406 182.847656 C 464.332031 180.285156 464.839844 179.253906 466.300781 177.109375 C 469.644531 174.738281 472.355469 175.160156 476.335938 175.417969 C 481.574219 175.742188 486.074219 175.953125 490.320312 172.476562 C 491.824219 170.582031 492.855469 168.585938 493.878906 166.402344 C 494.15625 165.832031 494.433594 165.261719 494.71875 164.671875 C 495.261719 163.542969 495.800781 162.414062 496.328125 161.277344 C 497.058594 159.769531 497.058594 159.769531 498.332031 157.640625 C 499.402344 155.714844 499.855469 154.496094 500.050781 152.296875 C 499.195312 150.015625 499.195312 150.015625 497.835938 147.636719 C 497.339844 146.703125 496.847656 145.765625 496.359375 144.828125 C 496.101562 144.339844 495.847656 143.847656 495.582031 143.34375 C 494.304688 140.832031 493.164062 138.265625 492.023438 135.6875 C 491.789062 135.15625 491.554688 134.628906 491.3125 134.082031 C 490.574219 132.414062 489.839844 130.75 489.105469 129.082031 C 488.316406 127.300781 487.527344 125.519531 486.738281 123.738281 C 486.210938 122.539062 485.679688 121.339844 485.148438 120.140625 C 482.257812 113.609375 479.332031 107.089844 476.394531 100.578125 C 474.667969 96.75 472.957031 92.917969 471.308594 89.054688 C 471.039062 88.429688 470.769531 87.804688 470.492188 87.15625 C 470.015625 86.042969 469.542969 84.925781 469.082031 83.804688 C 467.359375 79.796875 465.308594 77.042969 461.378906 75.042969 C 460.726562 74.808594 460.074219 74.574219 459.402344 74.332031 C 458.742188 74.089844 458.082031 73.847656 457.402344 73.59375 C 456.902344 73.421875 456.40625 73.25 455.894531 73.074219 C 455.894531 71.097656 455.894531 69.125 455.894531 67.09375 Z M 455.894531 67.09375 " fill-opacity="1" fill-rule="nonzero"/></g><path fill="#24242a" d="M 339.660156 64.570312 C 340.496094 64.550781 341.335938 64.535156 342.199219 64.515625 C 350.699219 64.484375 357.464844 66.679688 363.839844 72.324219 C 364.40625 72.808594 364.96875 73.292969 365.546875 73.792969 C 370.757812 78.585938 374.09375 84.128906 375.816406 91.011719 C 375.816406 95.449219 375.816406 99.890625 375.816406 104.464844 C 356.800781 104.464844 337.78125 104.464844 318.1875 104.464844 C 320.074219 121.535156 320.074219 121.535156 329.414062 134.824219 C 336.753906 139.488281 344.453125 141.082031 353.082031 139.589844 C 360.175781 137.9375 365.980469 134.777344 371.324219 129.875 C 373.171875 130.734375 374.355469 131.40625 375.816406 132.863281 C 375.425781 136.726562 372.367188 139.144531 369.828125 141.832031 C 369.234375 142.476562 368.640625 143.117188 368.027344 143.777344 C 364.433594 147.53125 361.285156 150.542969 356.355469 152.296875 C 355.820312 152.515625 355.285156 152.738281 354.734375 152.964844 C 344.511719 156.519531 331.070312 155.785156 321.183594 151.550781 C 313.246094 147.695312 304.992188 139.59375 301.722656 131.371094 C 301.433594 130.691406 301.144531 130.011719 300.84375 129.3125 C 298.679688 123.261719 298.441406 117.472656 298.402344 111.097656 C 298.394531 110.285156 298.386719 109.476562 298.378906 108.640625 C 298.519531 95.394531 303.265625 84.386719 312.292969 74.800781 C 320.1875 67.121094 328.921875 64.582031 339.660156 64.570312 Z M 324.175781 78.304688 C 320.339844 84.105469 320.328125 88.835938 318.9375 96.242188 C 331.285156 96.242188 343.632812 96.242188 356.355469 96.242188 C 355.050781 85.03125 355.050781 85.03125 350.136719 75.269531 C 342.308594 69.632812 330.644531 71.546875 324.175781 78.304688 Z M 324.175781 78.304688 " fill-opacity="1" fill-rule="nonzero"/><path fill="#24242a" d="M 419.175781 64.570312 C 420.011719 64.5625 420.847656 64.554688 421.707031 64.542969 C 427.472656 64.566406 432.726562 65.242188 437.933594 67.839844 C 438.425781 67.59375 438.921875 67.347656 439.429688 67.09375 C 441.429688 66.992188 443.414062 67.0625 445.417969 67.09375 C 447.078125 69.816406 447.402344 72.628906 447.757812 75.734375 C 447.820312 76.261719 447.882812 76.792969 447.945312 77.335938 C 448.9375 86.234375 448.9375 86.234375 448.410156 90.261719 C 446.914062 91.757812 446.914062 91.757812 445.296875 91.902344 C 444.6875 91.886719 444.078125 91.867188 443.453125 91.851562 C 442.839844 91.835938 442.230469 91.824219 441.601562 91.808594 C 441.132812 91.792969 440.660156 91.773438 440.179688 91.757812 C 439.761719 90.882812 439.34375 90.011719 438.917969 89.109375 C 438.339844 87.953125 437.761719 86.792969 437.183594 85.636719 C 436.914062 85.0625 436.644531 84.488281 436.363281 83.898438 C 433.710938 78.664062 430.324219 76.429688 424.929688 74.332031 C 419.785156 73.359375 414.414062 73.171875 409.441406 75.046875 C 406.90625 76.828125 406.144531 79.144531 405.292969 82.042969 C 404.832031 85.613281 405.59375 88.582031 407.25 91.757812 C 412.203125 97.5625 422.175781 99.285156 429.179688 101.445312 C 438.058594 104.28125 446.84375 109.433594 451.40625 117.917969 C 453.621094 124.132812 454.035156 131.644531 451.628906 137.878906 C 447.304688 145.496094 440.082031 151.425781 431.769531 154.089844 C 427.484375 155.019531 423.121094 154.828125 418.753906 154.773438 C 417.792969 154.773438 416.835938 154.777344 415.84375 154.78125 C 411.15625 154.753906 407.25 154.445312 402.757812 153.042969 C 400.523438 152.871094 398.308594 152.902344 396.070312 152.949219 C 395.488281 152.957031 394.902344 152.964844 394.300781 152.972656 C 392.878906 152.988281 391.457031 153.015625 390.035156 153.042969 C 388.351562 150.296875 388.042969 147.445312 387.695312 144.308594 C 387.632812 143.757812 387.570312 143.207031 387.507812 142.636719 C 387.082031 138.523438 386.882812 134.429688 386.855469 130.296875 C 386.847656 129.75 386.839844 129.207031 386.835938 128.648438 C 386.855469 124.828125 386.855469 124.828125 388.539062 123.148438 C 390.550781 122.945312 392.5 123.082031 394.527344 123.148438 C 394.679688 123.519531 394.835938 123.894531 394.996094 124.277344 C 395.804688 126.160156 396.660156 128.015625 397.519531 129.875 C 398.050781 131.089844 398.050781 131.089844 398.59375 132.328125 C 401.125 137.617188 403.355469 140.867188 408.78125 143.308594 C 417.296875 146.257812 424.511719 145.65625 432.695312 141.832031 C 433.6875 140.042969 433.6875 140.042969 434.191406 138.097656 C 434.5625 136.984375 434.5625 136.984375 434.941406 135.855469 C 435.210938 131.714844 435.25 128.839844 432.695312 125.390625 C 427.03125 121.144531 420.410156 118.980469 413.796875 116.703125 C 412.292969 116.179688 410.785156 115.65625 409.28125 115.125 C 407.925781 114.644531 406.570312 114.175781 405.210938 113.707031 C 398.242188 110.800781 392.738281 105.910156 389.289062 99.230469 C 388.234375 96.070312 388.339844 93.058594 388.304688 89.75 C 388.273438 88.769531 388.273438 88.769531 388.238281 87.769531 C 388.1875 82.265625 389.535156 78.578125 392.949219 74.277344 C 400.773438 66.703125 408.386719 64.460938 419.175781 64.570312 Z M 419.175781 64.570312 " fill-opacity="1" fill-rule="nonzero"/></svg>